HIERARCHY
ROOT root
{
	OFFSET 0.000000 0.000000 0.000000
	CHANNELS 6 Xposition Yposition Zposition Zrotation Yrotation Xrotation
	JOINT lhip
	{
		OFFSET 0.058581 -0.082280 -0.017664
		CHANNELS 3 Zrotation Yrotation Xrotation
		JOINT lknee
		{
			OFFSET 0.043451 -0.386469 0.008037
			CHANNELS 3 Zrotation Yrotation Xrotation
			JOINT lankle
			{
				OFFSET -0.014790 -0.426874 -0.037428
				CHANNELS 3 Zrotation Yrotation Xrotation
				JOINT ltoe
				{
					OFFSET 0.041054 -0.060286 0.122042
					CHANNELS 3 Zrotation Yrotation Xrotation
					End Site
					{
						OFFSET 0.000000 0.000000 0.000000
					}
				}
			}
		}
	}
	JOINT rhip
	{
		OFFSET -0.060310 -0.090513 -0.013543
		CHANNELS 3 Zrotation Yrotation Xrotation
		JOINT rknee
		{
			OFFSET -0.043257 -0.383688 -0.004843
			CHANNELS 3 Zrotation Yrotation Xrotation
			JOINT rankle
			{
				OFFSET 0.019056 -0.420046 -0.034562
				CHANNELS 3 Zrotation Yrotation Xrotation
				JOINT rtoe
				{
					OFFSET -0.034840 -0.062106 0.130323
					CHANNELS 3 Zrotation Yrotation Xrotation
					End Site
					{
						OFFSET 0.000000 0.000000 0.000000
					}
				}
			}
		}
	}
	JOINT lowerback
	{
		OFFSET 0.004439 0.124404 -0.038385
		CHANNELS 3 Zrotation Yrotation Xrotation
		JOINT upperback
		{
			OFFSET 0.004488 0.137956 0.026820
			CHANNELS 3 Zrotation Yrotation Xrotation
			JOINT chest
			{
				OFFSET -0.002265 0.056032 0.002855
				CHANNELS 3 Zrotation Yrotation Xrotation
				JOINT lowerneck
				{
					OFFSET -0.013390 0.211636 -0.033468
					CHANNELS 3 Zrotation Yrotation Xrotation
					JOINT upperneck
					{
						OFFSET 0.010113 0.088937 0.050410
						CHANNELS 3 Zrotation Yrotation Xrotation
						End Site
						{
							OFFSET 0.000000 0.000000 0.000000
						}
					}
				}
				JOINT lclavicle
				{
					OFFSET 0.071702 0.114000 -0.018898
					CHANNELS 3 Zrotation Yrotation Xrotation
					JOINT lshoulder
					{
						OFFSET 0.122921 0.045205 -0.019046
						CHANNELS 3 Zrotation Yrotation Xrotation
						JOINT lelbow
						{
							OFFSET 0.255332 -0.015649 -0.022946
							CHANNELS 3 Zrotation Yrotation Xrotation
							JOINT lwrist
							{
								OFFSET 0.265709 0.012698 -0.007375
								CHANNELS 3 Zrotation Yrotation Xrotation
								End Site
								{
									OFFSET 0.000000 0.000000 0.000000
								}
							}
						}
					}
				}
				JOINT rclavicle
				{
					OFFSET -0.082954 0.112472 -0.023707
					CHANNELS 3 Zrotation Yrotation Xrotation
					JOINT rshoulder
					{
						OFFSET -0.113228 0.046853 -0.008472
						CHANNELS 3 Zrotation Yrotation Xrotation
						JOINT relbow
						{
							OFFSET -0.260127 -0.014369 -0.031269
							CHANNELS 3 Zrotation Yrotation Xrotation
							JOINT rwrist
							{
								OFFSET -0.269108 0.006794 -0.006027
								CHANNELS 3 Zrotation Yrotation Xrotation
								End Site
								{
									OFFSET 0.000000 0.000000 0.000000
								}
							}
						}
					}
				}
			}
		}
	}
}
MOTION
Frames: 13
Frame Time: 0.033333
1.328225 0.715003 0.997979 -94.282092 1.563777 85.860742 3.187290 -1.358351 2.631680 -3.097691 -4.721983 9.752330 4.990291 8.763519 -20.312601 0.000000 -0.000000 0.000000 1.482576 -3.004038 0.950036 2.905530 -3.794105 10.287444 0.564352 -3.459755 -16.591233 0.000000 -0.000000 0.000000 -2.120761 4.775261 6.599685 2.104544 -0.320596 3.931279 0.662717 0.949737 1.195719 3.309272 3.553565 7.755779 1.437698 -4.175963 14.176094 -24.995251 1.922277 4.072869 -67.093828 -7.236699 12.440342 13.044623 -29.516698 12.285980 -7.349976 -9.558947 -4.775807 26.233701 -1.755328 5.032998 63.705327 2.270349 7.844540 -24.234393 26.396156 -4.113240 7.773790 3.895144 -5.056334 
1.327309 0.715116 0.998147 -93.913271 1.601060 85.228772 3.167208 -1.481259 3.570253 -3.010410 -5.195827 9.329236 4.701110 8.883463 -20.326973 0.000000 -0.000000 0.000000 1.543452 -2.246240 2.037614 2.853646 -4.496334 9.648954 1.840133 -3.942057 -15.984081 0.000000 -0.000000 0.000000 -2.134437 4.455182 7.195029 2.136142 -0.439255 3.709384 0.706356 0.937995 1.352441 3.549136 3.858750 7.664364 1.476644 -4.188107 14.412382 -24.860666 1.747624 4.152488 -67.057607 -7.644007 12.828945 12.699818 -29.307578 12.897176 -7.223776 -10.290885 -4.376760 26.373594 -1.707376 4.770945 63.868941 2.009020 8.033048 -24.258545 26.130884 -4.446391 6.955779 4.436244 -5.217859 
1.326852 0.715132 0.998297 -93.733328 1.685341 84.791401 3.206730 -1.635480 4.329624 -2.950694 -5.493281 8.812202 4.364298 9.001151 -20.266469 0.000000 -0.000000 0.000000 1.619310 -1.569791 2.726145 2.836506 -5.138844 9.222638 4.245768 -3.635806 -14.670175 0.000000 -0.000000 0.000000 -2.112819 4.207821 7.705178 2.162858 -0.496260 3.556297 0.812726 0.966174 1.354427 3.572175 4.182134 7.487947 1.538437 -4.110722 14.524443 -24.725092 1.610177 4.122061 -67.075775 -7.763671 12.933853 12.710087 -29.167046 13.051656 -7.713980 -10.720402 -3.543820 26.482527 -1.739581 4.589344 63.861233 1.829434 8.034531 -24.314398 25.942405 -4.361375 7.593834 4.575917 -4.730027 
1.327110 0.715041 0.998151 -94.102997 1.768348 84.766029 3.322440 -1.616871 4.622370 -3.015836 -5.374027 8.332682 4.501959 9.182335 -20.110760 0.000000 -0.000000 0.000000 1.738854 -1.844910 2.470426 2.681289 -4.824344 9.530978 3.326235 -3.339798 -15.335588 0.000000 -0.000000 0.000000 -2.175080 4.292528 7.487944 2.285713 -0.554898 3.698952 0.912456 0.993958 1.234928 3.645531 4.561709 7.560832 1.532456 -3.935446 14.432382 -24.513216 1.406526 4.158231 -66.940736 -7.671753 12.830219 12.850387 -29.014886 13.080960 -7.586703 -10.562336 -3.291768 26.486612 -1.678653 4.810654 64.067010 1.735422 7.962582 -24.364349 25.463536 -4.212781 7.282688 4.165574 -4.913293 
1.326933 0.714943 0.998088 -94.111878 1.769744 84.679239 3.309067 -1.679399 4.852181 -3.024673 -5.469123 8.109784 4.504609 9.311295 -20.001528 0.000000 -0.000000 0.000000 1.778220 -1.623852 2.582344 2.662388 -4.829727 9.505964 3.284115 -3.522984 -15.366144 0.000000 -0.000000 0.000000 -2.223187 4.229956 7.500579 2.308206 -0.561777 3.755455 0.943474 1.001855 1.224032 3.656434 4.621114 7.544967 1.547373 -3.952589 14.311711 -24.397627 1.420759 4.109980 -66.869554 -7.606450 12.702047 12.894491 -29.108297 13.048876 -8.116269 -10.288727 -3.205700 26.438906 -1.669932 4.802986 64.173328 1.633967 7.990967 -24.580959 25.500906 -3.943885 8.102189 3.631713 -4.743912 
1.326988 0.714838 0.997950 -94.380947 1.751627 84.674633 3.303623 -1.763688 5.136100 -3.125346 -5.541331 7.590057 4.618967 9.712817 -19.833387 0.000000 -0.000000 0.000000 1.771488 -1.566543 2.392598 2.638250 -4.639690 9.820529 3.151473 -3.582281 -15.568104 0.000000 -0.000000 0.000000 -2.308048 4.261060 7.371604 2.359979 -0.514844 3.759295 0.951774 1.032656 1.286356 3.776835 4.700557 7.630372 1.512043 -4.165754 14.172065 -24.234957 1.431934 3.940439 -66.482003 -7.529868 12.791895 12.683494 -28.792992 13.139765 -7.444489 -10.193552 -3.499405 26.358810 -1.575171 4.805293 64.421229 1.492345 8.200754 -24.328595 24.792776 -4.386779 6.435428 3.256446 -5.597516 
1.327224 0.714607 0.997830 -94.675597 1.861951 84.756134 3.382006 -1.523772 4.773661 -3.077317 -5.426504 8.181753 4.560385 9.616181 -20.122442 0.000000 -0.000000 0.000000 1.897101 -1.842001 2.042200 2.562871 -4.321121 10.172329 3.149180 -3.322330 -15.576543 0.000000 -0.000000 0.000000 -2.321832 4.305388 7.111804 2.444080 -0.461577 3.895213 1.034417 1.065048 1.334228 3.768915 4.738605 7.538732 1.449452 -3.999310 14.286925 -24.168207 1.469054 3.911014 -66.235712 -7.573536 12.633833 12.914360 -28.388932 12.923299 -7.698038 -10.351810 -3.217429 26.568114 -1.652479 4.911297 63.922818 1.802318 7.855182 -23.753917 23.998508 -4.183468 7.439957 4.412579 -5.484323 
1.327600 0.714098 0.997789 -94.829914 1.929259 84.805910 3.389693 -1.454199 4.519112 -3.057802 -5.329424 8.587528 4.651347 9.600384 -20.263456 0.000000 -0.000000 0.000000 1.962803 -1.980806 1.791031 2.496735 -4.173104 10.414896 3.065972 -3.228400 -15.590193 0.000000 -0.000000 0.000000 -2.209600 4.342524 7.044625 2.457229 -0.459576 3.949490 1.011213 1.085442 1.238273 3.670501 4.787940 7.787873 1.474725 -3.859832 13.923768 -24.042732 1.410807 3.883529 -65.938185 -7.455784 12.390202 13.036407 -28.047312 12.723218 -8.058896 -10.087460 -3.657526 26.351112 -1.666997 4.963086 64.295728 1.531186 7.806797 -24.036860 23.661304 -4.439507 6.743450 3.909968 -5.452768 
1.327482 0.713536 0.997752 -94.990492 1.899737 84.776690 3.292686 -1.401980 4.584125 -3.028270 -5.267144 8.581016 4.649660 9.637098 -20.325278 0.000000 -0.000000 0.000000 1.887479 -2.057945 1.771168 2.508552 -3.938996 10.457162 3.072491 -3.199271 -15.577615 0.000000 -0.000000 0.000000 -2.205536 4.398040 6.894167 2.470603 -0.466080 4.141480 0.967236 1.058900 1.368480 3.666894 4.902667 7.605288 1.293628 -3.827035 13.916332 -24.002752 1.485213 3.727182 -65.571584 -7.456638 12.170820 13.050291 -27.467432 12.583923 -8.108387 -10.110837 -3.273777 26.479371 -1.869091 4.801919 64.132497 1.720543 7.736396 -23.994427 23.152754 -4.274180 6.932247 3.824734 -4.565177 
1.327354 0.713161 0.997773 -95.225730 1.905524 84.889982 3.279834 -1.345198 4.531592 -3.059734 -5.152706 8.512910 4.694065 9.678562 -20.341375 0.000000 -0.000000 0.000000 1.884616 -2.243354 1.532262 2.458157 -3.697532 10.603339 3.112091 -3.018252 -15.587132 0.000000 -0.000000 0.000000 -2.249105 4.484427 6.712960 2.511582 -0.453785 4.132781 0.973085 1.095211 1.417312 3.733634 4.925158 7.580179 1.316362 -3.956577 14.001539 -23.919624 1.639787 3.664694 -65.250249 -7.312969 12.111576 12.965773 -26.793960 12.660782 -7.758937 -10.426434 -3.052154 26.520748 -2.013690 4.778517 63.997452 1.758912 7.594184 -23.727702 22.579930 -4.202100 6.708636 4.593948 -4.278446 
1.326761 0.712545 0.997831 -95.004887 1.998257 84.644459 3.305585 -1.382799 4.845634 -3.055661 -5.496977 8.446114 4.590420 9.832322 -20.393959 0.000000 -0.000000 0.000000 1.991271 -1.781703 2.050761 2.497933 -3.935063 10.207245 3.076335 -3.455966 -15.554809 0.000000 -0.000000 0.000000 -2.162368 4.321148 7.073207 2.534647 -0.492922 4.023280 1.022676 1.023068 1.390643 3.699122 4.960063 7.588596 1.250858 -3.870400 13.954077 -23.862497 1.687675 3.768372 -65.086336 -7.136667 11.676746 13.113077 -26.365402 12.521055 -8.528955 -10.188693 -2.692800 26.386668 -2.137889 4.691509 64.021782 1.558136 7.459285 -23.817071 22.641975 -3.848876 7.614820 4.367957 -4.013730 
1.326506 0.712078 0.997776 -95.067183 2.023917 84.693860 3.278655 -1.410398 4.861699 -3.059925 -5.519444 8.365458 4.645535 9.942725 -20.351209 0.000000 -0.000000 0.000000 1.996024 -1.609394 1.994743 2.512621 -3.990629 10.227566 3.071361 -3.538510 -15.587837 0.000000 -0.000000 0.000000 -2.171719 4.254967 7.053579 2.523869 -0.414014 3.923381 1.036979 1.013454 1.389217 3.726879 5.106548 7.524485 1.267328 -3.733911 14.043024 -23.835675 1.676462 3.887600 -64.900720 -6.870387 11.464902 13.234692 -25.794131 12.299251 -8.189374 -10.274922 -2.448757 26.435584 -2.117861 4.845192 64.010470 1.516436 7.378610 -23.703293 22.215044 -4.128999 6.643719 4.223693 -4.327193 
1.326305 0.711517 0.997603 -95.026672 2.037707 84.731051 3.230763 -1.434969 4.813610 -3.047767 -5.561621 8.418380 4.664628 9.975099 -20.404440 0.000000 -0.000000 0.000000 1.967922 -1.686413 1.941473 2.498734 -3.907645 10.269370 3.086514 -3.570714 -15.653981 0.000000 -0.000000 0.000000 -2.197817 4.294170 7.054533 2.546473 -0.486350 3.902673 1.039351 1.025026 1.475165 3.835705 5.144837 7.407336 1.215480 -3.782462 14.013389 -23.699484 1.778237 3.864256 -64.888192 -6.734169 11.425812 13.232343 -25.198223 12.455734 -7.851957 -10.328668 -2.501740 26.503170 -2.245195 4.791144 63.909366 1.545356 7.314121 -23.675881 21.999377 -4.193706 6.086682 4.369696 -4.280023 
